<svg width="351" height="198" viewBox="0 0 351 198" fill="none" xmlns="http://www.w3.org/2000/svg">
<path d="M265.616 141.784L244.663 143.395C243.946 143.45 243.328 142.779 243.283 141.892C243.239 141.006 243.784 140.244 244.501 140.189L265.454 138.578C266.171 138.523 266.789 139.195 266.833 140.081C266.878 140.968 266.332 141.729 265.616 141.784Z" fill="#EA5455"/>
<path d="M265.534 129.212L234.951 131.564C234.234 131.619 233.617 130.947 233.572 130.06C233.527 129.176 234.073 128.413 234.79 128.358L265.372 126.006C266.089 125.951 266.707 126.624 266.752 127.509C266.796 128.395 266.251 129.157 265.534 129.212Z" fill="#EA5455"/>
<path d="M251.876 117.683L234.319 119.034C233.602 119.089 232.984 118.417 232.94 117.53C232.895 116.646 233.44 115.883 234.157 115.828L251.715 114.477C252.431 114.422 253.049 115.096 253.094 115.981C253.139 116.867 252.593 117.628 251.876 117.683Z" fill="#EA5455"/>
<path d="M251.243 105.153L242.765 105.805C242.049 105.86 241.431 105.187 241.386 104.302C241.341 103.417 241.887 102.654 242.604 102.599L251.082 101.947C251.799 101.892 252.417 102.566 252.461 103.45C252.506 104.335 251.96 105.098 251.243 105.153Z" fill="#EA5455"/>
<path d="M291.153 119.347L265.496 121.32C262.454 121.554 259.823 118.688 259.633 114.931L258.748 97.3803C258.558 93.6247 260.88 90.3776 263.923 90.1436L284.061 88.595C287.103 88.361 289.734 91.2272 289.923 94.9829L291.153 119.347ZM264.083 93.3146C262.456 93.4397 261.214 95.1763 261.315 97.1844L262.201 114.733C262.303 116.743 263.709 118.276 265.336 118.151L288.426 116.375L287.356 95.1819C287.254 93.1738 285.848 91.6409 284.221 91.766L264.083 93.3146Z" fill="#EA5455"/>
<path d="M333.023 106.899L332.329 106.953C328.805 107.224 325.758 103.905 325.538 99.5549C325.319 95.2034 328.009 91.4432 331.533 91.1722L332.227 91.1189C333.776 90.9997 335.118 92.4595 335.214 94.3739L335.66 103.212C335.757 105.125 334.574 106.78 333.023 106.899ZM331.693 94.3432C329.585 94.5054 327.976 96.755 328.107 99.3573C328.239 101.96 330.061 103.945 332.169 103.783L332.863 103.73C332.997 103.72 333.1 103.576 333.091 103.411L332.645 94.5714C332.637 94.4062 332.521 94.2796 332.387 94.2899L331.693 94.3432Z" fill="#EA5455"/>
<path d="M328.253 144.72C328.209 144.723 328.164 144.724 328.12 144.721C327.641 144.697 327.213 144.345 327.009 143.809C325.621 140.17 325.45 136.074 326.523 132.282C327.613 128.438 329.852 125.347 332.825 123.579C335.8 121.813 339.152 121.579 342.268 122.925C345.673 124.395 348.38 127.63 349.694 131.8C349.87 132.351 349.78 132.977 349.464 133.422C349.149 133.868 348.66 134.06 348.191 133.919C340.845 131.718 333.07 135.836 329.287 143.927C329.07 144.394 328.68 144.687 328.253 144.72ZM337.589 125.272C333.778 125.565 330.29 128.613 328.952 133.335C328.378 135.363 328.253 137.502 328.573 139.568C332.725 133 339.406 129.453 346.12 130.274C344.959 128.278 343.327 126.752 341.415 125.927C340.149 125.38 338.853 125.175 337.589 125.272Z" fill="#EA5455"/>
<path d="M307.083 84.2025C300.822 84.6841 294.43 75.3226 294.046 67.7159C293.855 63.93 295.114 57.4554 305.692 56.6419C311.849 56.1685 317.169 61.965 317.552 69.5637C317.936 77.1624 313.24 83.7291 307.083 84.2025ZM305.852 59.8113C299.489 60.3007 296.382 62.8936 296.615 67.5167C296.912 73.4044 302.294 81.3875 306.923 81.0315C311.662 80.6671 315.28 75.6107 314.984 69.7611C314.689 63.9116 310.591 59.4469 305.852 59.8113Z" fill="#EA5455"/>
<path d="M307.962 84.1621L305.014 74.1131C304.587 72.6548 304.814 71.0727 305.621 69.8847C306.431 68.6965 307.657 68.1509 308.891 68.4132L317.635 70.3038L317.52 71.7687C317.063 77.5756 313.675 82.4182 309.087 83.8188L307.962 84.1621ZM308.223 71.5252C307.888 71.5509 307.677 71.8031 307.593 71.926C307.491 72.0743 307.273 72.4817 307.434 73.0307L309.566 80.3004C312.165 79.0304 314.111 76.2604 314.762 72.9074L308.447 71.5414C308.367 71.5252 308.291 71.5199 308.223 71.5252Z" fill="#EA5455"/>
<path d="M323.603 99.4421C323.306 99.465 323.003 99.4085 322.715 99.2696C321.68 98.7718 320.455 98.5343 318.962 98.5391C318.281 98.542 317.717 97.8885 317.675 97.0496L317.399 91.5829C317.354 90.7076 317.893 89.9533 318.603 89.8987L321.252 89.695C323.408 89.5292 325.27 91.5582 325.404 94.2192L325.532 96.75C325.576 97.6174 325.263 98.4405 324.696 98.953C324.371 99.2475 323.992 99.4122 323.603 99.4421ZM320.171 95.4111C321.174 95.4935 322.082 95.69 322.917 95.999L322.837 94.4183C322.791 93.5064 322.151 92.8108 321.412 92.8676L320.048 92.9725L320.171 95.4111Z" fill="#EA5455"/>
<path d="M303.473 109.535C303.281 109.55 303.085 109.513 302.901 109.418C301.671 108.792 300.37 108.525 299.03 108.628L289.36 109.372C288.651 109.426 288.04 108.761 287.995 107.885L287.649 101.03C287.117 90.4763 293.639 81.3401 302.189 80.6651C307.013 80.2942 311.239 84.7298 312.77 89.0904C313.028 89.8234 313.622 90.2817 314.25 90.2334L318.602 89.8987C319.312 89.8441 319.922 90.5101 319.966 91.3854L320.259 97.1826C320.394 99.8643 318.737 102.181 316.564 102.349L310.814 102.791C309.5 102.892 308.238 102.593 307.107 101.982C305.373 104.075 304.555 106.038 304.673 107.82C304.71 108.37 304.511 108.905 304.149 109.231C303.95 109.414 303.713 109.517 303.473 109.535ZM290.484 106.102L298.87 105.457C300.018 105.369 301.144 105.491 302.239 105.819C302.571 103.957 303.465 102.082 304.909 100.213C303.431 98.5421 302.454 96.193 302.32 93.5351C302.276 92.6597 302.814 91.9054 303.525 91.8508C304.235 91.7962 304.845 92.4622 304.889 93.3375C305.076 97.0312 307.663 99.8514 310.655 99.6212L316.406 99.179C317.163 99.1208 317.738 98.3142 317.691 97.3816L317.479 93.17L314.411 93.4059C312.705 93.5371 311.095 92.3101 310.409 90.3533C309.398 87.4678 306.228 83.5378 302.353 83.8359C295.218 84.3989 289.775 92.0246 290.22 100.832L290.484 106.102Z" fill="#EA5455"/>
<path d="M310.308 133.049L304.745 133.477C302.151 133.676 299.909 131.233 299.747 128.032L299.544 123.995C299.397 121.088 297.361 118.87 295.004 119.051L289.87 119.446C289.161 119.5 288.55 118.836 288.506 117.959L287.997 107.885C287.953 107.01 288.492 106.255 289.202 106.201L298.871 105.457C305.097 104.978 310.477 110.84 310.865 118.523L311.513 131.365C311.556 132.242 311.018 132.995 310.308 133.049ZM290.993 116.176L294.843 115.88C298.615 115.59 301.875 119.141 302.11 123.798L302.314 127.835C302.387 129.288 303.404 130.397 304.582 130.306L308.862 129.977L308.294 118.721C307.994 112.786 303.837 108.257 299.029 108.627L290.643 109.272L290.992 116.176L290.993 116.176Z" fill="#EA5455"/>
<path d="M290.498 151.193C287.031 151.459 284.033 148.194 283.817 143.912C283.789 143.345 283.817 142.759 283.906 142.118L286.443 142.653C286.389 143.049 286.369 143.395 286.385 143.715C286.513 146.247 288.286 148.179 290.338 148.022C292.39 147.864 293.955 145.675 293.827 143.142C293.811 142.823 293.758 142.483 293.663 142.099L296.125 141.176C296.279 141.798 296.366 142.376 296.395 142.945C296.611 147.225 293.967 150.926 290.498 151.193Z" fill="#EA5455"/>
<path d="M290.805 157.28C284.618 157.756 279.27 151.93 278.884 144.292C278.857 143.751 278.861 143.218 278.883 142.687L281.454 142.853C281.436 143.261 281.432 143.675 281.453 144.094C281.75 149.985 285.874 154.478 290.645 154.111C295.417 153.744 299.057 148.654 298.759 142.763C298.738 142.345 298.693 141.937 298.634 141.534L301.167 140.972C301.243 141.494 301.3 142.024 301.327 142.566C301.714 150.204 296.992 156.805 290.805 157.28Z" fill="#EA5455"/>
<path d="M339.778 153.514C333.866 153.969 328.664 148.639 327.935 141.381L330.489 140.988C331.05 146.584 335.062 150.694 339.618 150.343C344.39 149.976 348.03 144.886 347.733 138.995C347.622 136.79 346.968 134.71 345.843 132.978L347.85 130.99C349.308 133.238 350.156 135.937 350.301 138.8C350.686 146.438 345.966 153.038 339.778 153.514Z" fill="#EA5455"/>
<path d="M339.471 147.427C336.003 147.693 333.006 144.428 332.79 140.146C332.574 135.865 335.218 132.167 338.687 131.9C342.156 131.633 345.153 134.897 345.369 139.179C345.585 143.46 342.938 147.16 339.471 147.427ZM338.847 135.071C336.797 135.229 335.231 137.418 335.359 139.949C335.487 142.481 337.26 144.413 339.31 144.255C341.362 144.098 342.927 141.909 342.8 139.376C342.672 136.846 340.899 134.913 338.847 135.071Z" fill="#EA5455"/>
<path d="M328.689 140.631L276.459 144.647C274.987 144.76 273.563 143.977 272.647 142.548C271.731 141.121 271.441 139.228 271.868 137.485L273.935 129.057C275.666 122.004 280.833 116.956 286.792 116.498L294.845 115.878C298.618 115.588 301.877 119.14 302.112 123.796L302.316 127.833C302.389 129.287 303.407 130.395 304.584 130.304L320.548 129.077C321.288 129.02 321.962 128.563 322.393 127.82C322.836 127.065 322.974 126.118 322.772 125.222L317.105 100.028L319.586 99.1785L325.253 124.372C325.666 126.205 325.384 128.14 324.481 129.682C323.596 131.195 322.221 132.131 320.708 132.248L304.744 133.475C302.151 133.675 299.909 131.232 299.747 128.03L299.543 123.994C299.397 121.086 297.361 118.868 295.004 119.049L286.951 119.669C282.058 120.045 277.818 124.187 276.397 129.978L274.33 138.406C274.144 139.165 274.266 139.956 274.664 140.576C275.062 141.198 275.658 141.525 276.297 141.476L325.836 137.667C325.797 135.836 326.026 134.033 326.522 132.284C328.074 126.814 332.017 122.967 336.553 122.216L323.133 96.9553L325.285 95.214L341.366 125.484L338.797 125.284C334.444 124.936 330.391 128.254 328.951 133.336C328.438 135.144 328.286 137.029 328.499 138.937L328.689 140.631Z" fill="#EA5455"/>
<path d="M26.1644 75.8539H28.0555C26.2151 81.2405 21.5213 85.4725 15.8146 86.46C11.6104 87.0455 6.86558 86.7612 2.59424 86.7612L5.12688 75.8543H3.25271L6.51132 61.8024C9.8882 61.8024 18.4315 61.2839 21.8081 62.7058C26.4851 64.6965 27.65 69.7653 26.5695 74.2824C26.485 74.8177 26.35 75.353 26.1642 75.8549L26.1644 75.8539ZM13.6028 67.974L11.7793 75.8532H13.6535L12.556 80.5373C16.2199 80.5373 18.2629 79.1655 19.3942 75.8532H17.52C17.7057 75.4015 17.8408 74.8662 17.9928 74.2305C19.0396 69.8978 17.7563 67.974 13.6028 67.974ZM39.2162 75.9207L36.6835 86.8275H28.1401L30.6728 75.9207H28.9506L32.2599 61.802H40.7864L37.5108 75.9207H39.2162ZM65.6568 75.8539L63.141 86.7444H55.2899L51.9468 75.8539H51.5585L49.009 86.7444H41.0565L43.606 75.8539H42.0696L45.3282 61.8354H54.598L57.3332 70.6343L59.4099 61.8354H67.3962L64.1206 75.8539H65.6568ZM69.0841 75.9207H67.3619L70.6712 61.802H88.7542L87.3021 68.1421H77.6615L77.155 70.2834H86.0193L84.7192 75.9209H86.4414L86.2894 76.5901H77.4087L76.5138 80.5046H86.1207L84.6686 86.828H66.552L69.0841 75.9207ZM106.972 75.9207H105.25L108.559 61.802H126.642L125.19 68.1421H115.55L115.043 70.2834H123.907L122.607 75.9209H124.329L124.178 76.5901H115.297L114.402 80.5046H124.009L122.557 86.828H104.44L106.972 75.9207ZM145.4 75.3854L149.841 86.8275H140.166L138.09 81.0394C136.52 82.8963 134.78 84.9037 133.345 86.8275H123.873L133.717 75.3854H132.197L133.244 74.1808C131.488 70.1158 130.138 65.7997 128.432 61.7178H138.124L140.032 67.071C141.416 65.2642 143.003 63.5579 144.439 61.7178H153.877L143.324 73.9796L143.915 75.3848H145.401L145.4 75.3854ZM152.678 75.8539C153.775 71.1866 154.873 66.5025 155.97 61.8354H166.101C172.162 61.8354 176.4 64.9469 173.614 71.7555C172.905 73.4451 171.96 74.8001 170.879 75.854H172.415C169.765 78.3801 166.101 79.2332 161.879 79.2332L160.123 86.7444H151.715L154.248 75.8539H152.678ZM162.926 68.0416C162.572 69.6811 162.167 71.3539 161.795 73.0603C165.999 72.8428 167.57 68.0416 162.926 68.0416ZM176.4 75.3854H174.864L178.004 61.718C180.942 61.718 186.244 61.4336 190.431 61.9857C194.128 62.521 197.708 63.876 197.083 68.2757C196.729 70.9356 194.669 73.6624 192.44 75.3854H193.96C193.554 75.6866 193.149 76.0044 192.71 76.2219L198.485 86.828H188.354L184.133 78.6477L182.259 86.828H173.749L176.4 75.3854ZM185.112 67.9072L184.082 72.2232C188.152 72.2232 190.431 67.9072 185.112 67.9072ZM201.507 75.9207H199.785L203.094 61.802H221.177L219.725 68.1421H210.084L209.578 70.2834H218.442L217.142 75.9209H218.864L218.712 76.5901H209.831L208.936 80.5046H218.543L217.091 86.828H198.975L201.507 75.9207ZM241.793 75.3854C242.772 78.8984 239.834 83.0471 237.116 84.8704C231.78 88.3332 224.74 87.7811 219.286 85.0042L220.873 78.045H223.49C223.828 81.6417 231.949 83.1306 232.776 79.5841C233.181 77.8276 226.816 77.3424 224.689 75.6863C224.57 75.5859 224.435 75.4855 224.334 75.3852H222.781C221.092 73.8127 220.94 71.7216 221.43 69.5469C223.49 60.6306 235.714 59.7441 242.772 63.2736L241.202 70.0488H238.568C238.737 67.506 230.97 65.7662 230.244 68.8276C229.754 71.203 237.622 70.5004 239.801 74.2644C239.986 74.599 240.138 75.0005 240.24 75.3853L241.793 75.3854ZM263.691 75.3854C264.671 78.8984 261.733 83.0471 259.014 84.8704C253.679 88.3332 246.639 87.7811 241.185 85.0042L242.772 78.045H245.389C245.726 81.6417 253.848 83.1306 254.675 79.5841C255.08 77.8276 248.715 77.3424 246.587 75.6863C246.469 75.5859 246.334 75.4855 246.233 75.3852H244.679C242.991 73.8127 242.839 71.7216 243.329 69.5469C245.389 60.6306 257.612 59.7441 264.671 63.2736L263.1 70.0488H260.467C260.635 67.506 252.869 65.7662 252.143 68.8276C251.653 71.203 259.521 70.5004 261.699 74.2644C261.885 74.599 262.037 75.0005 262.138 75.3853L263.691 75.3854Z" fill="#EA5455"/>
<path d="M18.2415 133.66L16.9219 124.689H13.2197L12.01 133.66H8.49109L12.4499 107.692H17.1785L21.7604 133.66H18.2415ZM13.6962 121.239H16.4087L15.0158 111.796L13.6962 121.239ZM31.9049 133.878C29.1191 133.878 26.8831 131.626 26.8831 128.902V124.943H30.4387V128.902C30.4387 129.701 31.0985 130.355 31.9049 130.355C32.7113 130.355 33.3345 129.701 33.3345 128.902V125.452L26.8831 116.627V112.123C26.8831 109.363 29.1191 107.111 31.9049 107.111C34.6541 107.111 36.8901 109.363 36.8901 112.123V116.045H33.3345V112.123C33.3345 111.288 32.7113 110.67 31.9049 110.67C31.0985 110.67 30.4387 111.288 30.4387 112.123V115.428L36.8901 124.253V128.902C36.8901 131.626 34.6541 133.878 31.9049 133.878ZM51.1766 133.514L47.3278 119.205L46.7779 120.113V133.623H43.3689V107.729H46.7779V113.358L49.0506 107.729H53.266L49.7837 115.21L54.7322 133.514H51.1766ZM69.0187 119.968H63.9603V130.209H69.0554V133.66H60.478V107.729H69.0554V111.179H63.9603V116.518H69.0187V119.968ZM80.1162 133.696H75.5343V107.801H80.1162C83.232 107.801 85.7246 110.307 85.7246 113.394V128.103C85.7246 129.592 85.1381 131.008 84.0751 132.062C83.012 133.115 81.6191 133.696 80.1162 133.696ZM79.0166 111.288V130.209H80.1162C80.6661 130.209 81.2159 129.992 81.6191 129.592C82.0223 129.193 82.2423 128.684 82.2423 128.103V113.394C82.2423 112.232 81.2892 111.288 80.1162 111.288H79.0166ZM95.2825 135.839H94.8427L94.1095 133.66H92.2034V130.318H95.2825V135.839ZM123.489 133.66L122.169 124.689H118.467L117.258 133.66H113.739L117.697 107.692H122.426L127.008 133.66H123.489ZM118.944 121.239H121.656L120.263 111.796L118.944 121.239ZM143.017 133.732H139.278L137.262 128.248H136.456V133.732H132.974V107.729H138.435C140.855 107.729 142.797 109.653 142.797 112.05V123.926C142.797 125.488 141.991 126.832 140.745 127.595L143.017 133.732ZM136.456 111.179V124.798H138.435C138.912 124.798 139.315 124.399 139.315 123.926V112.05C139.315 111.578 138.912 111.179 138.435 111.179H136.456ZM159.54 133.732H155.801L153.785 128.248H152.979V133.732H149.496V107.729H154.958C157.377 107.729 159.32 109.653 159.32 112.05V123.926C159.32 125.488 158.514 126.832 157.267 127.595L159.54 133.732ZM152.979 111.179V124.798H154.958C155.434 124.798 155.838 124.399 155.838 123.926V112.05C155.838 111.578 155.434 111.179 154.958 111.179H152.979ZM169.501 107.656V133.514H166.019V107.656H169.501ZM183.274 133.66H179.646L175.98 107.729H179.499L181.405 121.094L183.164 107.729H186.683L183.274 133.66ZM201.446 119.968H196.388V130.209H201.483V133.66H192.906V107.729H201.483V111.179H196.388V116.518H201.446V119.968ZM212.544 133.696H207.962V107.801H212.544C215.66 107.801 218.152 110.307 218.152 113.394V128.103C218.152 129.592 217.566 131.008 216.503 132.062C215.44 133.115 214.047 133.696 212.544 133.696ZM211.444 111.288V130.209H212.544C213.094 130.209 213.644 129.992 214.047 129.592C214.45 129.193 214.67 128.684 214.67 128.103V113.394C214.67 112.232 213.717 111.288 212.544 111.288H211.444Z" fill="#EA5455"/>
</svg>
